<svg width="48" height="49" viewBox="0 0 48 49" fill="none" xmlns="http://www.w3.org/2000/svg">
<rect x="0.5" y="1.33447" width="47" height="47" rx="23.5" stroke="#DCDCDC"/>
<path d="M28.2727 14.8345H19.8182C16.5455 14.8345 14 17.3804 14 20.5628V29.0188C14 32.2921 16.5455 34.838 19.8182 34.838H28.2727C31.4545 34.838 34 32.2921 34 29.0188V20.5628C34 17.3804 31.4545 14.8345 28.2727 14.8345ZM24 30.1099C21.0909 30.1099 18.8182 27.7458 18.8182 24.9272C18.8182 22.1085 21.0909 19.6535 24 19.6535C26.9091 19.6535 29.1818 22.0176 29.1818 24.8362C29.1818 27.6549 26.9091 30.1099 24 30.1099ZM29.3636 20.7446C28.7273 20.7446 28.1818 20.1991 28.1818 19.5626C28.1818 18.9261 28.7273 18.3806 29.3636 18.3806C30 18.3806 30.5455 18.9261 30.5455 19.5626C30.5455 20.1991 30 20.7446 29.3636 20.7446Z" fill="#A9A9A9"/>
</svg>
