<svg width="48" height="49" viewBox="0 0 48 49" fill="none" xmlns="http://www.w3.org/2000/svg">
<rect x="0.5" y="1.33447" width="47" height="47" rx="23.5" stroke="#DCDCDC"/>
<path d="M34.8117 20.9377C34.6775 19.6358 34.3866 18.198 33.3168 17.4415C32.487 16.855 31.3976 16.8335 30.3806 16.8345C28.2303 16.8365 26.0799 16.8384 23.9295 16.8404C21.8614 16.8423 19.7932 16.8443 17.7251 16.8462C16.8611 16.8462 16.0215 16.7798 15.2191 17.1522C14.5294 17.4728 13.9906 18.0817 13.6673 18.759C13.2167 19.7022 13.1216 20.7696 13.0677 21.8125C12.9678 23.7106 12.9786 25.6146 13.0991 27.5108C13.1863 28.8958 13.4087 30.4254 14.4814 31.308C15.4327 32.0899 16.7748 32.1281 18.0073 32.129C21.9221 32.132 25.8369 32.1349 29.7517 32.1388C30.2533 32.1388 30.7774 32.13 31.2888 32.0743C32.2959 31.9658 33.255 31.6785 33.9016 30.9347C34.5541 30.185 34.7216 29.1401 34.8215 28.152C35.0625 25.7553 35.0596 23.3333 34.8117 20.9377ZM21.6654 27.848V21.1253L27.5014 24.4867L21.6654 27.848Z" fill="#A9A9A9"/>
</svg>
