<svg id="Layer_1" data-name="Layer 1" xmlns="http://www.w3.org/2000/svg" viewBox="0 0 750 393"><defs><style>.cls-1{fill:#fff;}.cls-2,.cls-3,.cls-6,.cls-8,.cls-9{fill:none;stroke-miterlimit:10;}.cls-2,.cls-3,.cls-9{stroke:#0f2535;}.cls-2,.cls-3{stroke-width:4px;}.cls-3{stroke-dasharray:21.97 21.97;}.cls-4{fill:#0f2535;}.cls-5{fill:#2f93e0;}.cls-6{stroke:#fff;}.cls-6,.cls-8,.cls-9{stroke-linecap:round;}.cls-6,.cls-8{stroke-width:3.99px;}.cls-7{fill:#54ab54;}.cls-8{stroke:#2f93e0;}.cls-9{stroke-width:3px;}</style></defs><title>api-banner</title><rect class="cls-1" x="332.59" y="51.05" width="221.67" height="221.67"/><polyline class="cls-2" points="554.26 260.73 554.26 272.71 542.27 272.71"/><line class="cls-3" x1="520.31" y1="272.71" x2="355.56" y2="272.71"/><polyline class="cls-2" points="344.57 272.71 332.59 272.71 332.59 260.73"/><line class="cls-3" x1="332.59" y1="238.76" x2="332.59" y2="74.01"/><polyline class="cls-2" points="332.59 63.03 332.59 51.05 344.57 51.05"/><line class="cls-3" x1="366.54" y1="51.05" x2="531.29" y2="51.05"/><polyline class="cls-2" points="542.27 51.05 554.26 51.05 554.26 63.03"/><line class="cls-3" x1="554.26" y1="85" x2="554.26" y2="249.75"/><path class="cls-4" d="M531.41,202.48a2.55,2.55,0,0,1-1.86,2.39l-12.28,1.86a37.61,37.61,0,0,1-2.59,6c2.26,3.25,4.65,6.17,7.1,9.16a2.62,2.62,0,0,1,.66,1.66,2.22,2.22,0,0,1-.6,1.53C520.26,227.24,511.29,237,509,237a3.38,3.38,0,0,1-1.73-.6l-9.16-7.17a40,40,0,0,1-6,2.52,86.92,86.92,0,0,1-1.92,12.35,2.43,2.43,0,0,1-2.39,1.86H473.05a2.38,2.38,0,0,1-2.39-2l-1.86-12.22a39,39,0,0,1-6-2.46l-9.36,7.1a2.55,2.55,0,0,1-1.66.6,2.38,2.38,0,0,1-1.66-.73c-3.52-3.19-8.17-7.3-11-11.15a2.58,2.58,0,0,1-.46-1.53,2.5,2.5,0,0,1,.53-1.53c2.26-3.05,4.71-6,7-9.1a35.22,35.22,0,0,1-2.72-6.57l-12.15-1.79a2.42,2.42,0,0,1-1.93-2.39V187.47a2.57,2.57,0,0,1,1.79-2.39l12.35-1.86a35.12,35.12,0,0,1,2.59-6.11c-2.26-3.19-4.65-6.17-7.1-9.16a2.45,2.45,0,0,1-.66-1.59,2.57,2.57,0,0,1,.6-1.53c1.59-2.19,10.56-11.88,12.81-11.88a3,3,0,0,1,1.73.66l9.16,7.1a40,40,0,0,1,6-2.52,86.92,86.92,0,0,1,1.92-12.35,2.43,2.43,0,0,1,2.39-1.86h14.74a2.38,2.38,0,0,1,2.39,2L492,158.2a39,39,0,0,1,6,2.46l9.43-7.1a2.26,2.26,0,0,1,1.59-.6,2.62,2.62,0,0,1,1.66.66c3.52,3.25,8.17,7.37,11,11.29a2.26,2.26,0,0,1,.46,1.46,2.5,2.5,0,0,1-.53,1.53c-2.26,3.05-4.71,6-7,9.1a36.57,36.57,0,0,1,2.72,6.51l12.15,1.86a2.42,2.42,0,0,1,1.93,2.39Zm-51-24.5a17,17,0,1,0,17,17A17,17,0,0,0,480.42,178Z"/><path class="cls-4" d="M447.08,129.46l-3.89-12.77H423.64l-3.89,12.77H407.49l18.93-53.87h13.91l19,53.87Zm-6.6-22.31q-5.39-17.36-6.07-19.63t-1-3.6q-1.21,4.7-6.93,23.23Z"/><path class="cls-4" d="M503.15,92.55q0,8.66-5.41,13.25t-15.39,4.59h-4.88v19.08H466.09V75.81h17.14q9.76,0,14.84,4.2T503.15,92.55Zm-25.69,8.51h3.74q5.25,0,7.85-2.07a7.26,7.26,0,0,0,2.61-6q0-4-2.18-5.91t-6.84-1.91h-5.17Z"/><path class="cls-4" d="M513.28,129.46V75.81h11.38v53.65Z"/><rect class="cls-4" x="191.45" y="142.92" width="225.67" height="201.04"/><path class="cls-1" d="M415.12,144.92V342H193.45v-197H415.12m4-4H189.45V346H419.12v-205Z"/><rect class="cls-5" x="193.45" y="144.92" width="221.67" height="30.91"/><rect class="cls-1" x="205.43" y="196.05" width="45.93" height="45.93"/><rect class="cls-1" x="274.67" y="210.03" width="124.49" height="13.31"/><rect class="cls-1" x="274.67" y="252.64" width="124.49" height="13.31"/><line class="cls-6" x1="274.67" y1="198.05" x2="336.58" y2="198.05"/><line class="cls-6" x1="274.67" y1="242.65" x2="323.26" y2="242.65"/><rect class="cls-7" x="274.67" y="283.26" width="48.6" height="15.98"/><line class="cls-8" x1="209.43" y1="253.3" x2="239.38" y2="253.3"/><line class="cls-8" x1="209.43" y1="268.61" x2="243.38" y2="268.61"/><line class="cls-8" x1="209.43" y1="283.93" x2="236.05" y2="283.93"/><line class="cls-8" x1="209.43" y1="299.24" x2="248.7" y2="299.24"/><line class="cls-8" x1="209.43" y1="314.55" x2="233.39" y2="314.55"/><circle class="cls-1" cx="396.69" cy="159.68" r="5.96" transform="translate(39.44 394.7) rotate(-55.27)"/><circle class="cls-1" cx="374.45" cy="159.68" r="5.96" transform="translate(29.87 376.43) rotate(-55.27)"/><circle class="cls-1" cx="352.22" cy="159.68" r="5.96" transform="translate(20.31 358.16) rotate(-55.27)"/><line class="cls-9" x1="143.95" y1="342.95" x2="464.62" y2="342.95"/></svg>